<svg width="429" height="311" viewBox="0 0 429 311" fill="none" xmlns="http://www.w3.org/2000/svg">
<path d="M193.366 60.2318C193.366 60.2318 144.435 82.4308 144.04 82.4308L193.366 110.5V60.2318Z" fill="#1B1B1B"/>
<path d="M56 215.391L59 214L50 198.131L0 220.078L9 237.177C9 236.868 9.8435 236.207 10.875 235.707C14.055 234.166 53.253 216.627 56 215.391Z" fill="#1B1B1B"/>
<path fill-rule="evenodd" clip-rule="evenodd" d="M94.5 0.733825C53.0075 6.26882 22.8025 35.2788 17.2755 74.9038C16.1495 82.9768 16.2515 95.3788 17.504 102.705C19.9915 117.253 26.724 130.63 37.63 142.691C40.3699 145.722 43.092 148.448 46 151.029C51.8034 156.182 58.3471 160.76 67.25 166.042C69.9949 167.67 76.4562 171.508 84 175.991H190.441C186.976 170.014 183.109 165.09 177.314 159.082C174.294 155.952 171.768 153.437 169.001 151.029H46L37.63 142.691H157.859C150.755 137.973 140.643 131.953 124 122.195C108.188 112.924 94.0485 104.416 92.5795 103.289C86.4835 98.6093 81.63 91.3743 79.9285 84.4308C78.996 80.6253 79.1265 71.4773 80.171 67.4308C83.359 55.0818 91.273 48.2468 103.654 47.1483C113.616 46.2643 123.118 49.8543 129.736 57.0028C133.163 60.7043 135.442 64.5883 140.033 74.5558L190.712 53C189.661 50.5311 188.469 47.8907 187.467 45.8858C181.496 33.9363 170.744 21.3443 160.75 14.5958C149.212 6.80482 136.257 2.16582 121.25 0.452823C115.027 -0.257677 100.814 -0.108175 94.5 0.733825ZM194.797 184.46H98.25L121.25 198.131L126.25 203.156C130.277 207.203 132.819 210.561 134.777 214.64H202.188C201.821 204.535 199.356 194.47 194.797 184.46ZM202.023 222.867H137.66C138.813 228.408 138.823 235.473 137.548 240.123C134.376 251.682 125.194 261.515 115.777 263.436C108.119 264.998 97.557 262.27 89.7825 256.722C83.2345 252.05 73.162 238.621 62.297 220.078L10.9385 242.709C17.317 259.069 25.8295 272.295 37.4815 283.952C46.726 293.199 55.9785 299.391 67.318 303.917C78.319 308.307 89.1545 310.392 103.013 310.785C121.015 311.296 135.447 308.495 149.75 301.716C160.592 296.577 168.671 290.781 176.75 282.346C191.949 266.478 200.178 247.11 202.023 222.867ZM9 237.177L59 214L56 215.391C53.253 216.627 14.055 234.166 10.875 235.707C9.8435 236.207 9 236.868 9 237.177ZM319.75 7.27232C298.575 8.21482 281.106 9.14182 280.93 9.33332C280.763 9.51318 268.128 68.3203 252.271 142.691H301.463L300.83 146.744C302.067 138.83 303.405 130.249 304.797 121.307C310.821 82.6018 315.867 50.9328 316.012 50.9323C316.155 50.9313 322.307 82.3743 329.684 120.806C331.145 128.42 332.559 135.779 333.886 142.691H394.281C378.185 68.7627 365.268 9.41552 364.978 8.05582L364.417 5.43082L361.333 5.49482C359.637 5.53032 340.925 6.33032 319.75 7.27232ZM340.291 175.991C338.997 169.272 337.355 160.738 335.489 151.029H396.096L397.309 156.599C398.739 163.169 400.148 169.643 401.528 175.991H340.291ZM341.924 184.46C342.801 189.002 343.312 191.632 343.352 191.806L343.608 192.931H318.5C298.628 192.931 293.44 192.8 293.618 192.306C293.655 192.205 294.114 189.38 294.898 184.46H243.369C241.134 194.944 238.98 205.048 236.933 214.64H409.918C407.842 205.06 405.649 194.955 403.369 184.46H341.924ZM217.701 304.556C217.805 304.216 224.931 270.903 235.179 222.867H411.7C421.93 270.111 428.909 302.689 428.802 302.796C428.52 303.077 365.471 305.584 365.245 305.323C365.117 305.175 354.5 241.89 354.5 241.274C354.5 241.082 338.366 240.982 318.646 241.052L282.791 241.181L276.423 272.931C272.921 290.393 270.044 304.849 270.028 305.056C270.013 305.262 258.172 305.431 243.716 305.431C218.915 305.431 217.447 305.381 217.701 304.556ZM245.174 175.991C246.522 169.666 247.896 163.22 249.289 156.681L250.493 151.029H300.159C298.569 161.192 297.172 170.082 296.082 176.983L296.239 175.991H245.174Z" fill="#1B1B1B"/>
</svg>
