<?xml version="1.0" encoding="UTF-8" standalone="no"?><!-- Generator: Gravit.io --><svg xmlns="http://www.w3.org/2000/svg" xmlns:xlink="http://www.w3.org/1999/xlink" style="isolation:isolate" viewBox="0 0 71 64" width="71pt" height="64pt"><defs><clipPath id="_clipPath_d6kvhWOALZiUqyS3lgQCbeSA84dpLiIf"><rect width="71" height="64"/></clipPath></defs><g clip-path="url(#_clipPath_d6kvhWOALZiUqyS3lgQCbeSA84dpLiIf)"><path d=" M 62.103 2 L 38.725 2 C 34.934 2 31.845 5.155 31.845 9.025 L 31.845 18.131 L 6.078 18.131 C 2.739 18.131 0 20.91 0 24.338 L 0 52.575 C 0 55.986 2.722 58.782 6.078 58.782 L 16.666 58.782 L 16.666 60.59 L 13.309 60.59 C 12.391 60.59 11.639 61.357 11.639 62.295 C 11.639 63.233 12.391 64 13.309 64 L 67.33 64 C 68.249 64 69 63.233 69 62.295 L 69 9.025 C 68.98 5.147 65.901 2.011 62.103 2 L 62.103 2 Z  M 3.34 52.558 L 3.34 24.321 C 3.34 22.786 4.559 21.524 6.078 21.524 L 45.488 21.524 C 46.991 21.524 48.227 22.769 48.227 24.321 L 48.227 52.558 C 48.227 54.093 47.008 55.355 45.488 55.355 L 6.078 55.355 C 4.576 55.338 3.34 54.093 3.34 52.558 L 3.34 52.558 Z  M 19.989 58.748 L 31.561 58.748 L 31.561 60.556 L 19.989 60.556 L 19.989 58.748 Z  M 65.644 60.573 L 35.185 60.573 L 35.185 58.765 L 45.488 58.765 C 48.828 58.765 51.566 55.986 51.566 52.558 L 51.566 24.321 C 51.566 20.91 48.844 18.114 45.488 18.114 L 35.201 18.114 L 35.201 9.025 C 35.201 7.03 36.788 5.41 38.742 5.41 L 62.12 5.41 C 64.074 5.41 65.66 7.03 65.66 9.025 L 65.66 60.573 L 65.644 60.573 L 65.644 60.573 Z  M 61.519 11.481 L 39.192 11.481 C 38.274 11.481 37.523 12.248 37.523 13.186 C 37.523 14.124 38.274 14.891 39.192 14.891 L 61.519 14.891 C 62.437 14.891 63.189 14.124 63.189 13.186 C 63.189 12.231 62.437 11.481 61.519 11.481 Z  M 61.519 18.114 L 54.722 18.114 C 53.804 18.114 53.053 18.881 53.053 19.819 C 53.053 20.757 53.804 21.524 54.722 21.524 L 61.519 21.524 C 62.437 21.524 63.189 20.757 63.189 19.819 C 63.189 18.881 62.437 18.114 61.519 18.114 Z  M 61.519 55.338 L 54.722 55.338 C 53.804 55.338 53.053 56.105 53.053 57.043 C 53.053 57.981 53.804 58.748 54.722 58.748 L 61.519 58.748 C 62.437 58.748 63.189 57.981 63.189 57.043 C 63.189 56.105 62.437 55.338 61.519 55.338 Z " fill="rgb(0,173,229)"/><g><text transform="matrix(1,0,0,1,18.469,25.577)" style="font-family:'Podkova';font-weight:400;font-size:3px;font-style:normal;fill:#000000;stroke:none;">JAVA GUI</text><text transform="matrix(1,0,0,1,4.012,29.718)" style="font-family:'Podkova';font-weight:400;font-size:2px;font-style:normal;fill:#000000;stroke:none;">public class Akash{   </text><text transform="matrix(1,0,0,1,5.518,31.934)" style="font-family:'Podkova';font-weight:400;font-size:2px;font-style:normal;fill:#000000;stroke:none;">public static void main(String[]arges){      </text><text transform="matrix(1,0,0,1,7.024,34.15)" style="font-family:'Podkova';font-weight:400;font-size:2px;font-style:normal;fill:#000000;stroke:none;">start();</text><text transform="matrix(1,0,0,1,4.012,36.366)" style="font-family:'Podkova';font-weight:400;font-size:2px;font-style:normal;fill:#000000;stroke:none;">   }</text><text transform="matrix(1,0,0,1,4.012,38.582)" style="font-family:'Podkova';font-weight:400;font-size:2px;font-style:normal;fill:#000000;stroke:none;">public void start{   </text><text transform="matrix(1,0,0,1,5.518,40.798)" style="font-family:'Podkova';font-weight:400;font-size:2px;font-style:normal;fill:#000000;stroke:none;">MyApp frame  = new MyApp();   </text><text transform="matrix(1,0,0,1,5.518,43.014)" style="font-family:'Podkova';font-weight:400;font-size:2px;font-style:normal;fill:#000000;stroke:none;">frame.setVisible(true);</text><text transform="matrix(1,0,0,1,4.012,45.23)" style="font-family:'Podkova';font-weight:400;font-size:2px;font-style:normal;fill:#000000;stroke:none;">   }   </text><text transform="matrix(1,0,0,1,4.012,47.446)" style="font-family:'Podkova';font-weight:400;font-size:2px;font-style:normal;fill:#000000;stroke:none;">}</text><path d="M 5.36 52.558 L 45.64 52.558 C 46.391 52.558 47 53.168 47 53.918 L 47 53.978 C 47 54.728 46.391 55.338 45.64 55.338 L 5.36 55.338 C 4.609 55.338 4 54.728 4 53.978 L 4 53.918 C 4 53.168 4.609 52.558 5.36 52.558 Z" style="stroke:none;fill:#022739;stroke-miterlimit:10;"/><ellipse vector-effect="non-scaling-stroke" cx="6.5" cy="53.956545654565446" rx="1.5" ry="1.3811881188118775" fill="rgb(11,188,247)"/><rect x="5.828" y="53.224" width="0.5" height="0.448" transform="matrix(1,0,0,1,0,0)" fill="rgb(235,235,235)"/><rect x="5.828" y="54" width="0.5" height="0.448" transform="matrix(1,0,0,1,0,0)" fill="rgb(235,235,235)"/><rect x="6.5" y="54" width="0.5" height="0.448" transform="matrix(1,0,0,1,0,0)" fill="rgb(235,235,235)"/><rect x="6.5" y="53.224" width="0.5" height="0.448" transform="matrix(1,0,0,1,0,0)" fill="rgb(235,235,235)"/></g></g></svg>