<?xml version="1.0" encoding="UTF-8" standalone="no"?><!-- Generator: Gravit.io --><svg xmlns="http://www.w3.org/2000/svg" xmlns:xlink="http://www.w3.org/1999/xlink" style="isolation:isolate" viewBox="0 0 75 64" width="75pt" height="64pt"><defs><clipPath id="_clipPath_qRBPIehZVx6DXVSmPORPebLf3kS1xFD9"><rect width="75" height="64"/></clipPath></defs><g clip-path="url(#_clipPath_qRBPIehZVx6DXVSmPORPebLf3kS1xFD9)"><g><clipPath id="_clipPath_q4JLkZbWBGMDZb5jBc3Nsxxa9O8Awhxx"><rect x="0" y="0" width="62.5" height="64" transform="matrix(1,0,0,1,0,0)" fill="rgb(255,255,255)"/></clipPath><g clip-path="url(#_clipPath_q4JLkZbWBGMDZb5jBc3Nsxxa9O8Awhxx)"><g><text transform="matrix(0.88,0,0,1,13.864,13.66)" style="font-family:'Podkova';font-weight:400;font-size:11px;font-style:normal;font-variant-ligatures:none;fill:#00ADE5;stroke:none;">&#x3C;/html&#x3E;</text><text transform="matrix(0.88,0,0,1,22.395,25.848)" style="font-family:'Podkova';font-weight:400;font-size:11px;font-style:normal;font-variant-ligatures:none;fill:#00ADE5;stroke:none;">CSS </text><text transform="matrix(0.88,0,0,1,7.963,38.036)" style="font-family:'Podkova';font-weight:400;font-size:11px;font-style:normal;font-variant-ligatures:none;fill:#00ADE5;stroke:none;">JavaScript</text><path d=" M 10.748 45.393 L 9.371 45.393 C 8.685 45.393 8.128 44.67 8.128 43.777 C 8.128 42.885 8.685 42.161 9.371 42.161 L 10.748 42.161 C 11.429 42.161 11.992 42.872 11.992 43.777 C 11.976 44.682 11.429 45.393 10.748 45.393 Z  M 57.938 1 L 4.562 1 C 2.057 1 0 3.758 0 7.142 L 0 46.299 C 0 49.682 2.04 52.44 4.562 52.44 L 27.534 52.44 L 27.534 59.767 L 20.17 59.767 C 19.482 59.767 18.926 60.491 18.926 61.384 C 18.926 62.276 19.482 63 20.17 63 L 42.33 63 C 43.018 63 43.574 62.276 43.574 61.384 C 43.574 60.491 43.018 59.767 42.33 59.767 L 34.883 59.767 L 34.883 52.44 L 57.938 52.44 C 60.443 52.44 62.5 49.682 62.5 46.299 L 62.5 7.142 C 62.5 3.758 60.46 1 57.938 1 Z  M 32.411 59.767 L 30.023 59.767 L 30.023 52.44 L 32.411 52.44 L 32.411 59.767 Z  M 57.938 49.229 L 4.562 49.229 C 3.417 49.229 2.472 47.915 2.472 46.299 L 2.472 45.393 L 5.44 45.393 C 6.128 45.393 6.685 44.67 6.685 43.777 C 6.685 42.885 6.128 42.161 5.44 42.161 L 2.472 42.161 L 2.472 7.142 C 2.472 5.526 3.401 4.211 4.562 4.211 L 57.938 4.211 C 59.083 4.211 60.028 5.526 60.028 7.142 L 60.028 42.182 L 16.04 42.182 C 15.353 42.182 14.796 42.906 14.796 43.799 C 14.796 44.691 15.353 45.415 16.04 45.415 L 60.028 45.415 L 60.028 46.32 C 60.028 47.915 59.099 49.229 57.938 49.229 L 57.938 49.229 Z " fill="rgb(0,173,229)"/></g></g><g><path d=" M 57.273 63.474 C 56.641 63.474 56.035 63.231 55.589 62.798 C 55.142 62.366 54.891 61.779 54.891 61.167 L 54.891 33.147 C 54.891 31.874 55.957 30.841 57.273 30.841 L 72.076 30.841 C 73.391 30.841 74.458 31.873 74.458 33.147 L 74.458 61.168 C 74.458 61.78 74.207 62.367 73.76 62.8 C 73.314 63.232 72.708 63.475 72.076 63.475 L 57.273 63.474 Z " fill="rgb(182,220,254)"/><path d=" M 72.075 31.368 C 73.089 31.368 73.913 32.166 73.913 33.148 L 73.913 61.168 C 73.913 62.151 73.089 62.948 72.075 62.948 L 57.272 62.948 C 56.257 62.947 55.435 62.15 55.435 61.167 L 55.435 33.147 C 55.435 32.166 56.259 31.368 57.273 31.368 L 72.076 31.368 M 72.076 30.316 L 57.272 30.316 C 56.496 30.316 55.752 30.614 55.204 31.145 C 54.655 31.677 54.347 32.397 54.348 33.148 L 54.348 61.168 C 54.348 61.92 54.656 62.64 55.204 63.171 C 55.753 63.702 56.497 64.001 57.273 64 L 72.076 64 C 72.852 64 73.596 63.702 74.144 63.171 C 74.693 62.639 75.001 61.919 75 61.167 L 75 33.147 C 75 32.396 74.692 31.676 74.144 31.144 C 73.595 30.613 72.851 30.315 72.075 30.316 L 72.076 30.316 Z " fill="rgb(71,136,199)"/><path d=" M 54.891 34 L 74.457 34 L 74.457 60.316 L 54.891 60.316 L 54.891 34 Z " fill="rgb(223,240,254)"/><path d=" M 73.913 34.526 L 73.913 59.789 L 55.435 59.789 L 55.435 34.526 L 73.913 34.526 Z  M 75 33.474 L 54.348 33.474 L 54.348 60.842 L 75 60.842 L 75 33.474 Z " fill="rgb(71,136,199)"/></g><text transform="matrix(1,0,0,1,59.273,37.387)" style="font-family:'Port Lligat Sans';font-weight:400;font-size:3px;font-style:normal;fill:#00ade5;stroke:none;">&#x3C;/html&#x3E;   </text><text transform="matrix(1,0,0,1,62.474,43.813)" style="font-family:'Port Lligat Sans';font-weight:400;font-size:3px;font-style:normal;fill:#00ade5;stroke:none;">CSS   </text><text transform="matrix(1,0,0,1,58.706,50.239)" style="font-family:'Port Lligat Sans';font-weight:400;font-size:3px;font-style:normal;fill:#00ade5;stroke:none;">JavaScript</text></g></g></svg>