<?xml version="1.0" encoding="UTF-8" standalone="no"?><!-- Generator: Gravit.io --><svg xmlns="http://www.w3.org/2000/svg" xmlns:xlink="http://www.w3.org/1999/xlink" style="isolation:isolate" viewBox="0 0 71 64" width="71pt" height="64pt"><defs><clipPath id="_clipPath_ouT0vMgz2acX0VeZClBgy0XAY0bKlLyn"><rect width="71" height="64"/></clipPath></defs><g clip-path="url(#_clipPath_ouT0vMgz2acX0VeZClBgy0XAY0bKlLyn)"><g><g><rect x="33.754" y="1" width="37.246" height="59.294" transform="matrix(1,0,0,1,0,0)" fill="rgb(230,157,157)"/><text transform="matrix(1,0,0,1,41.946,17.981)" style="font-family:'Port Lligat Sans';font-weight:400;font-size:14px;font-style:normal;fill:#000000;stroke:none;">UX</text><text transform="matrix(1,0,0,1,32.039,36.073)" style="font-family:'Port Lligat Sans';font-weight:400;font-size:2px;font-style:normal;fill:#000000;stroke:none;">hello people this </text><text transform="matrix(1,0,0,1,32.251,38.215)" style="font-family:'Port Lligat Sans';font-weight:400;font-size:2px;font-style:normal;fill:#000000;stroke:none;">is shariar akash</text></g><g><g opacity="0.25"><rect x="33.754" y="22.618" width="17.459" height="6.176" transform="matrix(1,0,0,1,0,0)" fill="rgb(235,235,235)"/></g><text transform="matrix(1,0,0,1,36.081,25.573)" style="font-family:'Port Lligat Sans';font-weight:400;font-size:2px;font-style:normal;fill:#000000;stroke:none;">Start</text></g><g><g opacity="0.25"><rect x="53.541" y="49.794" width="17.459" height="6.176" transform="matrix(1,0,0,1,0,0)" fill="rgb(235,235,235)"/></g><text transform="matrix(1,0,0,1,63.793,53.367)" style="font-family:'Port Lligat Sans';font-weight:400;font-size:2px;font-style:normal;fill:#000000;stroke:none;">End</text></g><g><g opacity="0.25"><rect x="53.541" y="34.971" width="17.459" height="6.176" transform="matrix(1,0,0,1,0,0)" fill="rgb(235,235,235)"/></g><text transform="matrix(1,0,0,1,63.814,38.544)" style="font-family:'Port Lligat Sans';font-weight:400;font-size:2px;font-style:normal;fill:#000000;stroke:none;">Mid</text></g><g><rect x="0" y="4.706" width="37.246" height="59.294" transform="matrix(1,0,0,1,0,0)" fill="rgb(128,197,232)"/><text transform="matrix(1,0,0,1,10.896,19.216)" style="font-family:'Port Lligat Sans';font-weight:400;font-size:14px;font-style:normal;fill:#000000;stroke:none;">UI</text><g><g opacity="0.25"><rect x="0" y="26.941" width="17.459" height="6.176" transform="matrix(1,0,0,1,0,0)" fill="rgb(235,235,235)"/></g><text transform="matrix(1,0,0,1,2.327,29.896)" style="font-family:'Port Lligat Sans';font-weight:400;font-size:2px;font-style:normal;fill:#000000;stroke:none;">Start</text></g><g><g opacity="0.25"><rect x="19.787" y="54.118" width="17.459" height="6.176" transform="matrix(1,0,0,1,0,0)" fill="rgb(235,235,235)"/></g><text transform="matrix(1,0,0,1,30.039,57.691)" style="font-family:'Port Lligat Sans';font-weight:400;font-size:2px;font-style:normal;fill:#000000;stroke:none;">End</text></g><g><g opacity="0.25"><rect x="19.787" y="39.294" width="17.459" height="6.176" transform="matrix(1,0,0,1,0,0)" fill="rgb(235,235,235)"/></g><text transform="matrix(1,0,0,1,30.06,42.867)" style="font-family:'Port Lligat Sans';font-weight:400;font-size:2px;font-style:normal;fill:#000000;stroke:none;">Mid</text></g></g><text transform="matrix(1,0,0,1,0.613,41.014)" style="font-family:'Port Lligat Sans';font-weight:400;font-size:2px;font-style:normal;fill:#000000;stroke:none;">hello people this </text><text transform="matrix(1,0,0,1,0.825,43.156)" style="font-family:'Port Lligat Sans';font-weight:400;font-size:2px;font-style:normal;fill:#000000;stroke:none;">is shariar akash</text></g></g></svg>