<?xml version="1.0" encoding="UTF-8" standalone="no"?><!-- Generator: Gravit.io --><svg xmlns="http://www.w3.org/2000/svg" xmlns:xlink="http://www.w3.org/1999/xlink" style="isolation:isolate" viewBox="0 0 71 64" width="71pt" height="64pt"><defs><clipPath id="_clipPath_JTMR8SVSlX6JcgBPrVOSk2esfrE1oHBu"><rect width="71" height="64"/></clipPath></defs><g clip-path="url(#_clipPath_JTMR8SVSlX6JcgBPrVOSk2esfrE1oHBu)"><path d=" M 59.168 32.448 L 59.168 29.824 L 56.313 29.824 L 56.313 16.247 C 56.313 7.291 47.422 0 36.5 0 C 25.578 0 16.687 7.291 16.687 16.247 L 16.687 29.824 L 13.832 29.824 L 13.832 32.448 L 10 32.448 L 10 37.193 C 10 48.711 20.979 58.155 34.814 58.877 L 34.814 59.852 L 22.972 59.852 C 21.573 59.852 20.443 60.779 20.443 61.926 C 20.443 63.073 21.573 64 22.972 64 L 50.028 64 C 51.427 64 52.557 63.073 52.557 61.926 C 52.557 60.779 51.427 59.852 50.028 59.852 L 38.186 59.852 L 38.186 58.877 C 52.021 58.155 63 48.711 63 37.193 L 63 32.448 L 59.168 32.448 Z  M 52.96 35.072 L 20.06 35.072 L 20.06 32.605 L 52.96 32.605 L 52.96 35.072 Z  M 52.902 37.822 C 52.327 44.83 45.199 50.408 36.5 50.408 C 27.801 50.408 20.673 44.846 20.098 37.822 L 52.902 37.822 Z  M 20.06 16.263 C 20.06 13.749 20.922 11.408 22.378 9.381 L 22.378 25.597 C 22.378 26.163 22.953 26.634 23.643 26.634 C 24.333 26.634 24.907 26.163 24.907 25.597 L 24.907 7.228 C 24.907 7.071 24.869 6.93 24.792 6.804 C 25.961 5.83 27.322 4.997 28.816 4.337 L 28.816 25.581 C 28.816 26.147 29.391 26.618 30.081 26.618 C 30.771 26.618 31.346 26.147 31.346 25.581 L 31.346 3.457 C 32.591 3.111 33.894 2.907 35.255 2.813 L 35.255 25.581 C 35.255 26.147 35.829 26.618 36.519 26.618 C 37.209 26.618 37.784 26.147 37.784 25.581 L 37.784 2.828 C 39.144 2.907 40.447 3.127 41.693 3.473 L 41.693 25.613 C 41.693 26.178 42.268 26.65 42.957 26.65 C 43.647 26.65 44.222 26.178 44.222 25.613 L 44.222 4.337 C 45.717 4.981 47.077 5.814 48.246 6.804 C 48.169 6.93 48.131 7.087 48.131 7.228 L 48.131 25.581 C 48.131 26.147 48.706 26.618 49.396 26.618 C 50.085 26.618 50.66 26.147 50.66 25.581 L 50.66 9.381 C 52.183 11.459 52.985 13.839 52.979 16.263 L 52.979 29.839 L 20.06 29.839 L 20.06 16.263 L 20.06 16.263 Z  M 59.647 37.193 C 59.647 47.658 49.261 56.159 36.519 56.159 C 23.758 56.159 13.392 47.643 13.392 37.193 L 13.392 35.213 L 13.851 35.213 L 13.851 37.837 L 16.726 37.837 C 17.3 46.385 25.961 53.174 36.519 53.174 C 47.077 53.174 55.719 46.37 56.313 37.837 L 59.187 37.837 L 59.187 35.213 L 59.647 35.213 L 59.647 37.193 Z " fill="rgb(0,174,239)"/></g></svg>